<svg width="74" height="74" viewBox="0 0 74 74" fill="none" xmlns="http://www.w3.org/2000/svg">
<circle cx="37" cy="37" r="37" fill="#D9D9D9"/>
<path d="M44.1685 44.2903L44.1415 53.3387L37.8193 47.0159V37.9423L44.1685 44.2903Z" fill="#042141"/>
<path d="M53.339 44.1413L44.4462 44.1677L38.0375 37.7594H46.958L53.339 44.1413Z" fill="#042141"/>
<path d="M53.339 31.0949L46.9574 37.4768H37.9766L44.385 31.0685L53.339 31.0949Z" fill="#042141"/>
<path d="M37.5362 37.9169V46.8969L31.095 53.3383L31.0689 44.3844L37.5362 37.9169Z" fill="#042141"/>
<path d="M44.1685 30.8856L37.8193 37.2345V28.2203L44.1415 21.8981L44.1685 30.8856Z" fill="#042141"/>
<path d="M37.5362 28.3393V37.259L31.069 30.7911L31.0951 21.8983L37.5362 28.3393Z" fill="#042141"/>
<path d="M37.3546 37.4772H28.2802L21.8989 31.0952L30.9472 31.0688L37.3546 37.4772Z" fill="#042141"/>
<path d="M37.2943 37.759L30.886 44.1673L21.8987 44.1409L28.28 37.7589L37.2943 37.759Z" fill="#042141"/>
<path d="M44.4486 44.4483H53.5931V53.5927H44.4486V44.4483Z" fill="#042141"/>
<path d="M53.5923 21.6451V30.7862H44.6685L44.6675 30.7875L44.4509 30.7862V21.6451H53.5923Z" fill="#042141"/>
<path d="M30.7874 30.5102L30.7861 30.7863H21.6449V21.6451H30.7861V30.5086L30.7874 30.5102Z" fill="#042141"/>
<path d="M21.6438 44.4483H30.789V53.5927H21.6438V44.4483Z" fill="#042141"/>
<path d="M47.3092 37.6189L53.773 31.1552L60.2367 37.6189L53.773 44.0826L47.3092 37.6189Z" fill="#042141"/>
<path d="M31.1546 21.4637L37.6184 15L44.0821 21.4637L37.6184 27.9274L31.1546 21.4637Z" fill="#042141"/>
<path d="M15 37.6181L21.4634 31.1547L27.9268 37.6181L21.4634 44.0815L15 37.6181Z" fill="#042141"/>
<path d="M31.1538 53.776L37.6169 47.3129L44.0803 53.7763L37.6172 60.2394L31.1538 53.776Z" fill="#042141"/>
</svg>
